<svg viewBox="0 0 70 55" fill="none" xmlns="http://www.w3.org/2000/svg">
<path d="M12.44 44.9017H47.6945C49.3297 44.9017 50.7155 43.6834 50.9399 42.0731L55.2363 9.82537C55.2363 9.82537 55.2363 9.82537 55.2363 9.81113C55.9559 4.22869 60.751 0 66.3905 0H67.2348C68.3855 0 69.3153 0.929812 69.3153 2.0805C69.3153 3.22763 68.3855 4.15744 67.2348 4.15744H66.3905C62.828 4.15744 59.807 6.81863 59.351 10.3526C59.351 10.3526 59.351 10.3526 59.351 10.3669L55.0546 42.6146C54.5701 46.2876 51.4102 49.0592 47.6945 49.0592H46.4476C46.4084 52.0802 43.9681 54.5205 40.9328 54.5205C37.8976 54.5205 35.4573 52.0802 35.4181 49.0592H26.7969C26.7541 52.0802 24.3174 54.5205 21.2821 54.5205C18.2469 54.5205 15.8065 52.0802 15.7673 49.0592H12.44C11.2893 49.0592 10.363 48.1294 10.363 46.9787C10.363 45.8316 11.2893 44.9017 12.44 44.9017Z" fill="black"/>
<path d="M24.8838 9.54735L31.7452 8.71729C34.3636 12.9032 40.0458 20.1102 50.1063 24.4065L48.1932 38.6922C33.9895 30.502 27.1175 15.4112 24.8838 9.54735Z" fill="black" fill-opacity="0.4"/>
<path d="M20.6302 10.0603C22.586 15.6321 29.6112 32.6216 45.5071 41.991H23.6939C16.3765 29.1981 14.5739 15.2152 14.1571 10.8369L20.6302 10.0603Z" fill="black" fill-opacity="0.6"/>
<path d="M50.6906 20.1103C43.4552 16.7402 38.8952 11.7384 36.3729 8.16169L49.8855 6.54075C50.5232 6.45882 51.1609 6.69394 51.6169 7.14994C52.0764 7.6095 52.2831 8.24719 52.2011 8.88488L50.6906 20.1103Z" fill="black" fill-opacity="0.2"/>
<path d="M0.423695 13.1098C0.77282 12.6681 1.27157 12.3902 1.82376 12.3189L10.0424 11.3357C10.4593 15.9776 12.1621 29.1874 18.938 41.991H10.3738C6.5512 41.991 3.28082 39.1374 2.78207 35.3398L0.0353827 14.6631C-0.075055 14.1073 0.0781318 13.5551 0.423695 13.1098Z" fill="black" fill-opacity="0.8"/>
</svg>
